# xmcd
# Copyright (C) 1995-1998 Ti Kan
#
# Track frame offsets:
#       150
#       30501
#       54191
#       78026
#       101847
#       116979
#       143776
#       165799
#       187416
#       203081
#
# Disc length: 3168 seconds
#
# Revision: 0
# Processed by: cddbd v1.5.2PL0 Copyright (c) Steve Scherf et al.
# Submitted via: CD-Transfer v1.0
#
DISCID=7e0c5e0a
DTITLE=Massive Attack - 
DYEAR=10
DGENRE=
TTITLE0=Pray For Rain
TTITLE1=Babel
TTITLE2=Splitting The Atom
TTITLE3=Girl I Love Yu
TTITLE4=Psyche
TTITLE5=Flat Of The Blade
TTITLE6=Paradise Circus
TTITLE7=Rush Minute
TTITLE8=Saturday Come Slow
TTITLE9=Atlas Air
EXTD=
EXTT0=
EXTT1=
EXTT2=
EXTT3=
EXTT4=
EXTT5=
EXTT6=
EXTT7=
EXTT8=
EXTT9=
PLAYORDER=
